<svg width="64" height="64" viewBox="0 0 64 64" fill="none" xmlns="http://www.w3.org/2000/svg">
  <circle cx="32" cy="32" r="29.5" fill="#25D366" stroke="#FFFFFF" stroke-width="3"/>
  <path
    d="M31.95 16.8C23.6 16.8 16.82 23.58 16.82 31.93C16.82 34.6 17.52 37.18 18.84 39.45L16.8 47.2L24.75 45.11C26.94 46.29 29.42 46.93 31.95 46.93H31.96C40.31 46.93 47.09 40.15 47.09 31.8C47.09 27.8 45.53 24.04 42.7 21.21C39.87 18.38 36.11 16.81 32.11 16.8H31.95Z"
    fill="#FFFFFF"
  />
  <path
    d="M41.02 36.02C40.65 35.84 38.82 34.94 38.49 34.82C38.16 34.7 37.92 34.64 37.68 35.01C37.44 35.37 36.74 36.2 36.54 36.44C36.34 36.68 36.14 36.71 35.77 36.52C35.4 36.33 34.2 35.95 32.77 34.67C31.65 33.67 30.89 32.44 30.67 32.07C30.45 31.7 30.64 31.5 30.84 31.3C31.02 31.12 31.21 30.82 31.4 30.6C31.59 30.38 31.65 30.23 31.77 29.99C31.89 29.75 31.83 29.54 31.74 29.36C31.65 29.18 30.9 27.35 30.57 26.54C30.25 25.76 29.92 25.86 29.68 25.85H29.02C28.78 25.85 28.38 25.94 28.04 26.3C27.7 26.66 26.74 27.56 26.74 29.39C26.74 31.22 28.07 32.99 28.25 33.23C28.43 33.47 30.85 37.15 34.55 38.75C35.43 39.13 36.11 39.36 36.64 39.53C37.52 39.81 38.32 39.77 38.96 39.68C39.67 39.57 41.15 38.81 41.45 38C41.75 37.19 41.75 36.5 41.66 36.35C41.57 36.2 41.39 36.2 41.02 36.02Z"
    fill="#25D366"
  />
</svg>
